<mxfile host="app.diagrams.net" modified="2023-11-01T10:21:54.957Z" agent="Mozilla/5.0 (Macintosh; Intel Mac OS X 10_15_7) AppleWebKit/605.1.15 (KHTML, like Gecko) Version/17.0 Safari/605.1.15" etag="MHM2WHprttafst0Xm7BA" version="22.0.8" type="github">
  <diagram name="Page-1" id="umYnc2G4NVmvyY0PxLt7">
    <mxGraphModel dx="794" dy="547" grid="1" gridSize="10" guides="1" tooltips="1" connect="1" arrows="1" fold="1" page="1" pageScale="1" pageWidth="827" pageHeight="1169" math="0" shadow="0">
      <root>
        <mxCell id="0" />
        <mxCell id="1" parent="0" />
        <mxCell id="hoJWsb-0iiCZ9vNQ1knT-7" value="" style="rounded=1;whiteSpace=wrap;html=1;" vertex="1" parent="1">
          <mxGeometry x="315" y="1350" width="665" height="490" as="geometry" />
        </mxCell>
        <mxCell id="h2BCPPt2ExegwEmn4m4d-1" value="What is Docker ? its a software development platform for virtualisation with multiple OS which are running on the same host." style="rounded=1;whiteSpace=wrap;html=1;fontSize=22;" parent="1" vertex="1">
          <mxGeometry x="180" y="80" width="490" height="130" as="geometry" />
        </mxCell>
        <mxCell id="h2BCPPt2ExegwEmn4m4d-2" value="" style="rounded=1;whiteSpace=wrap;html=1;fontSize=22;" parent="1" vertex="1">
          <mxGeometry x="150" y="280" width="470" height="400" as="geometry" />
        </mxCell>
        <mxCell id="h2BCPPt2ExegwEmn4m4d-5" value="" style="edgeStyle=orthogonalEdgeStyle;rounded=0;orthogonalLoop=1;jettySize=auto;html=1;fontSize=22;" parent="1" source="h2BCPPt2ExegwEmn4m4d-3" target="h2BCPPt2ExegwEmn4m4d-4" edge="1">
          <mxGeometry relative="1" as="geometry" />
        </mxCell>
        <mxCell id="h2BCPPt2ExegwEmn4m4d-3" value="Application" style="rounded=1;whiteSpace=wrap;html=1;fontSize=22;" parent="1" vertex="1">
          <mxGeometry x="190" y="300" width="140" height="30" as="geometry" />
        </mxCell>
        <mxCell id="h2BCPPt2ExegwEmn4m4d-7" value="" style="edgeStyle=orthogonalEdgeStyle;rounded=0;orthogonalLoop=1;jettySize=auto;html=1;fontSize=22;" parent="1" source="h2BCPPt2ExegwEmn4m4d-4" target="h2BCPPt2ExegwEmn4m4d-6" edge="1">
          <mxGeometry relative="1" as="geometry" />
        </mxCell>
        <mxCell id="h2BCPPt2ExegwEmn4m4d-4" value="Lib/binaries" style="whiteSpace=wrap;html=1;fontSize=22;rounded=1;" parent="1" vertex="1">
          <mxGeometry x="200" y="350" width="120" height="60" as="geometry" />
        </mxCell>
        <mxCell id="h2BCPPt2ExegwEmn4m4d-6" value="GuestOS" style="whiteSpace=wrap;html=1;fontSize=22;rounded=1;" parent="1" vertex="1">
          <mxGeometry x="200" y="440" width="120" height="60" as="geometry" />
        </mxCell>
        <mxCell id="h2BCPPt2ExegwEmn4m4d-8" value="hyperviser" style="rounded=1;whiteSpace=wrap;html=1;fontSize=22;" parent="1" vertex="1">
          <mxGeometry x="180" y="520" width="390" height="60" as="geometry" />
        </mxCell>
        <mxCell id="h2BCPPt2ExegwEmn4m4d-9" value="host OS" style="rounded=1;whiteSpace=wrap;html=1;fontSize=22;" parent="1" vertex="1">
          <mxGeometry x="170" y="600" width="410" height="60" as="geometry" />
        </mxCell>
        <mxCell id="h2BCPPt2ExegwEmn4m4d-19" value="Application" style="rounded=1;whiteSpace=wrap;html=1;fontSize=22;" parent="1" vertex="1">
          <mxGeometry x="430" y="300" width="140" height="30" as="geometry" />
        </mxCell>
        <mxCell id="h2BCPPt2ExegwEmn4m4d-20" value="Lib/binaries" style="whiteSpace=wrap;html=1;fontSize=22;rounded=1;" parent="1" vertex="1">
          <mxGeometry x="440" y="350" width="120" height="60" as="geometry" />
        </mxCell>
        <mxCell id="h2BCPPt2ExegwEmn4m4d-21" value="GuestOS" style="whiteSpace=wrap;html=1;fontSize=22;rounded=1;" parent="1" vertex="1">
          <mxGeometry x="440" y="440" width="120" height="60" as="geometry" />
        </mxCell>
        <mxCell id="h2BCPPt2ExegwEmn4m4d-22" value="Application" style="rounded=1;whiteSpace=wrap;html=1;fontSize=22;" parent="1" vertex="1">
          <mxGeometry x="305" y="300" width="140" height="30" as="geometry" />
        </mxCell>
        <mxCell id="h2BCPPt2ExegwEmn4m4d-23" value="Lib/binaries" style="whiteSpace=wrap;html=1;fontSize=22;rounded=1;" parent="1" vertex="1">
          <mxGeometry x="315" y="350" width="120" height="60" as="geometry" />
        </mxCell>
        <mxCell id="h2BCPPt2ExegwEmn4m4d-24" value="GuestOS" style="whiteSpace=wrap;html=1;fontSize=22;rounded=1;" parent="1" vertex="1">
          <mxGeometry x="315" y="440" width="120" height="60" as="geometry" />
        </mxCell>
        <mxCell id="h2BCPPt2ExegwEmn4m4d-26" value="" style="rounded=1;whiteSpace=wrap;html=1;fontSize=22;" parent="1" vertex="1">
          <mxGeometry x="680" y="280" width="470" height="400" as="geometry" />
        </mxCell>
        <mxCell id="h2BCPPt2ExegwEmn4m4d-27" value="" style="edgeStyle=orthogonalEdgeStyle;rounded=0;orthogonalLoop=1;jettySize=auto;html=1;fontSize=22;" parent="1" source="h2BCPPt2ExegwEmn4m4d-28" target="h2BCPPt2ExegwEmn4m4d-30" edge="1">
          <mxGeometry relative="1" as="geometry" />
        </mxCell>
        <mxCell id="h2BCPPt2ExegwEmn4m4d-28" value="Application" style="rounded=1;whiteSpace=wrap;html=1;fontSize=22;" parent="1" vertex="1">
          <mxGeometry x="720" y="300" width="140" height="30" as="geometry" />
        </mxCell>
        <mxCell id="h2BCPPt2ExegwEmn4m4d-40" style="edgeStyle=orthogonalEdgeStyle;rounded=0;orthogonalLoop=1;jettySize=auto;html=1;fontSize=22;" parent="1" source="h2BCPPt2ExegwEmn4m4d-30" target="h2BCPPt2ExegwEmn4m4d-32" edge="1">
          <mxGeometry relative="1" as="geometry" />
        </mxCell>
        <mxCell id="h2BCPPt2ExegwEmn4m4d-30" value="Lib/binaries" style="whiteSpace=wrap;html=1;fontSize=22;rounded=1;" parent="1" vertex="1">
          <mxGeometry x="730" y="350" width="120" height="60" as="geometry" />
        </mxCell>
        <mxCell id="h2BCPPt2ExegwEmn4m4d-43" style="edgeStyle=orthogonalEdgeStyle;rounded=0;orthogonalLoop=1;jettySize=auto;html=1;entryX=0.5;entryY=0;entryDx=0;entryDy=0;fontSize=22;" parent="1" source="h2BCPPt2ExegwEmn4m4d-32" target="h2BCPPt2ExegwEmn4m4d-33" edge="1">
          <mxGeometry relative="1" as="geometry" />
        </mxCell>
        <mxCell id="h2BCPPt2ExegwEmn4m4d-32" value="Container Engine." style="rounded=1;whiteSpace=wrap;html=1;fontSize=22;" parent="1" vertex="1">
          <mxGeometry x="710" y="470" width="390" height="60" as="geometry" />
        </mxCell>
        <mxCell id="h2BCPPt2ExegwEmn4m4d-33" value="host OS" style="rounded=1;whiteSpace=wrap;html=1;fontSize=22;" parent="1" vertex="1">
          <mxGeometry x="700" y="570" width="410" height="60" as="geometry" />
        </mxCell>
        <mxCell id="h2BCPPt2ExegwEmn4m4d-34" value="Application" style="rounded=1;whiteSpace=wrap;html=1;fontSize=22;" parent="1" vertex="1">
          <mxGeometry x="960" y="300" width="140" height="30" as="geometry" />
        </mxCell>
        <mxCell id="h2BCPPt2ExegwEmn4m4d-42" style="edgeStyle=orthogonalEdgeStyle;rounded=0;orthogonalLoop=1;jettySize=auto;html=1;fontSize=22;" parent="1" source="h2BCPPt2ExegwEmn4m4d-35" target="h2BCPPt2ExegwEmn4m4d-32" edge="1">
          <mxGeometry relative="1" as="geometry" />
        </mxCell>
        <mxCell id="h2BCPPt2ExegwEmn4m4d-35" value="Lib/binaries" style="whiteSpace=wrap;html=1;fontSize=22;rounded=1;" parent="1" vertex="1">
          <mxGeometry x="970" y="350" width="120" height="60" as="geometry" />
        </mxCell>
        <mxCell id="h2BCPPt2ExegwEmn4m4d-37" value="Application" style="rounded=1;whiteSpace=wrap;html=1;fontSize=22;" parent="1" vertex="1">
          <mxGeometry x="835" y="300" width="140" height="30" as="geometry" />
        </mxCell>
        <mxCell id="h2BCPPt2ExegwEmn4m4d-38" value="Lib/binaries" style="whiteSpace=wrap;html=1;fontSize=22;rounded=1;" parent="1" vertex="1">
          <mxGeometry x="845" y="350" width="120" height="60" as="geometry" />
        </mxCell>
        <mxCell id="h2BCPPt2ExegwEmn4m4d-41" style="edgeStyle=orthogonalEdgeStyle;rounded=0;orthogonalLoop=1;jettySize=auto;html=1;entryX=0.554;entryY=-0.017;entryDx=0;entryDy=0;entryPerimeter=0;fontSize=22;" parent="1" source="h2BCPPt2ExegwEmn4m4d-38" target="h2BCPPt2ExegwEmn4m4d-32" edge="1">
          <mxGeometry relative="1" as="geometry" />
        </mxCell>
        <mxCell id="h2BCPPt2ExegwEmn4m4d-44" value="Container : template or working copy?" style="rounded=1;whiteSpace=wrap;html=1;fontSize=22;" parent="1" vertex="1">
          <mxGeometry x="680" y="740" width="270" height="60" as="geometry" />
        </mxCell>
        <mxCell id="h2BCPPt2ExegwEmn4m4d-45" value="image : its a template . ===&amp;gt; we can have multiple containers." style="rounded=1;whiteSpace=wrap;html=1;fontSize=22;" parent="1" vertex="1">
          <mxGeometry x="680" y="820" width="260" height="30" as="geometry" />
        </mxCell>
        <mxCell id="h2BCPPt2ExegwEmn4m4d-48" value="" style="edgeStyle=orthogonalEdgeStyle;rounded=0;orthogonalLoop=1;jettySize=auto;html=1;" parent="1" source="h2BCPPt2ExegwEmn4m4d-46" target="h2BCPPt2ExegwEmn4m4d-47" edge="1">
          <mxGeometry relative="1" as="geometry" />
        </mxCell>
        <mxCell id="h2BCPPt2ExegwEmn4m4d-46" value="Docker run hello-world" style="rounded=1;whiteSpace=wrap;html=1;" parent="1" vertex="1">
          <mxGeometry x="390" y="950" width="330" height="60" as="geometry" />
        </mxCell>
        <mxCell id="h2BCPPt2ExegwEmn4m4d-50" value="" style="edgeStyle=orthogonalEdgeStyle;rounded=0;orthogonalLoop=1;jettySize=auto;html=1;" parent="1" source="h2BCPPt2ExegwEmn4m4d-47" target="h2BCPPt2ExegwEmn4m4d-49" edge="1">
          <mxGeometry relative="1" as="geometry" />
        </mxCell>
        <mxCell id="h2BCPPt2ExegwEmn4m4d-52" value="" style="edgeStyle=orthogonalEdgeStyle;rounded=0;orthogonalLoop=1;jettySize=auto;html=1;" parent="1" source="h2BCPPt2ExegwEmn4m4d-47" target="h2BCPPt2ExegwEmn4m4d-51" edge="1">
          <mxGeometry relative="1" as="geometry" />
        </mxCell>
        <mxCell id="h2BCPPt2ExegwEmn4m4d-47" value="hello-world image is available locally or not" style="rhombus;whiteSpace=wrap;html=1;rounded=1;" parent="1" vertex="1">
          <mxGeometry x="925" y="940" width="80" height="80" as="geometry" />
        </mxCell>
        <mxCell id="h2BCPPt2ExegwEmn4m4d-49" value="it will create the container and run it." style="whiteSpace=wrap;html=1;rounded=1;" parent="1" vertex="1">
          <mxGeometry x="1065" y="950" width="120" height="60" as="geometry" />
        </mxCell>
        <mxCell id="h2BCPPt2ExegwEmn4m4d-51" value="it will connect to the central repo and then it will download the image(pull) &amp;nbsp;and will utilise it." style="whiteSpace=wrap;html=1;rounded=1;" parent="1" vertex="1">
          <mxGeometry x="905" y="1110" width="235" height="60" as="geometry" />
        </mxCell>
        <mxCell id="hoJWsb-0iiCZ9vNQ1knT-1" value="" style="rounded=1;whiteSpace=wrap;html=1;" vertex="1" parent="1">
          <mxGeometry x="450" y="1400" width="440" height="380" as="geometry" />
        </mxCell>
        <mxCell id="hoJWsb-0iiCZ9vNQ1knT-2" value="Virtual Machine&amp;nbsp;" style="text;html=1;strokeColor=none;fillColor=none;align=center;verticalAlign=middle;whiteSpace=wrap;rounded=0;" vertex="1" parent="1">
          <mxGeometry x="500" y="1420" width="120" height="30" as="geometry" />
        </mxCell>
        <mxCell id="hoJWsb-0iiCZ9vNQ1knT-3" value="" style="rounded=1;whiteSpace=wrap;html=1;" vertex="1" parent="1">
          <mxGeometry x="510" y="1490" width="120" height="60" as="geometry" />
        </mxCell>
        <mxCell id="hoJWsb-0iiCZ9vNQ1knT-4" value="" style="rounded=1;whiteSpace=wrap;html=1;" vertex="1" parent="1">
          <mxGeometry x="520" y="1590" width="120" height="60" as="geometry" />
        </mxCell>
        <mxCell id="hoJWsb-0iiCZ9vNQ1knT-5" value="" style="rounded=1;whiteSpace=wrap;html=1;" vertex="1" parent="1">
          <mxGeometry x="715" y="1550" width="120" height="60" as="geometry" />
        </mxCell>
        <mxCell id="hoJWsb-0iiCZ9vNQ1knT-6" value="jar ==&amp;gt; WebLogic Server.==&amp;gt; ip==&amp;gt;domain" style="rounded=1;whiteSpace=wrap;html=1;" vertex="1" parent="1">
          <mxGeometry x="690" y="1470" width="120" height="60" as="geometry" />
        </mxCell>
      </root>
    </mxGraphModel>
  </diagram>
</mxfile>
